<svg width="14" height="14" viewBox="0 0 14 14" fill="none" xmlns="http://www.w3.org/2000/svg">
<g opacity="0.65">
<path d="M6.99916 12.4132C6.65631 12.4132 6.42773 12.1847 6.42773 11.8418V2.41323C6.42773 2.07037 6.65631 1.8418 6.99916 1.8418C7.34202 1.8418 7.57059 2.07037 7.57059 2.41323V11.8418C7.57059 12.1275 7.34202 12.4132 6.99916 12.4132Z" fill="black" stroke="black" stroke-width="0.2"/>
<path d="M7.00056 12.5271C6.82913 12.5271 6.71484 12.4699 6.60056 12.3556L2.88627 8.64135C2.6577 8.41278 2.6577 8.06992 2.88627 7.84135C3.11484 7.61278 3.4577 7.61278 3.68627 7.84135L7.00056 11.1556L10.3148 7.84135C10.5434 7.61278 10.8863 7.61278 11.1148 7.84135C11.3434 8.06992 11.3434 8.41278 11.1148 8.64135L7.40056 12.3556C7.28627 12.4699 7.17199 12.5271 7.00056 12.5271Z" fill="black" stroke="black" stroke-width="0.2"/>
</g>
</svg>
