<svg width="24" height="24" viewBox="0 0 24 24" fill="none" xmlns="http://www.w3.org/2000/svg">
<path opacity="0.65" d="M20.2174 19.1472L17.0259 15.9557L17.0246 15.9544C17.5714 15.3069 18.0173 14.5805 18.3471 13.7998C18.7883 12.7567 19.012 11.649 19.012 10.5076C19.012 9.36619 18.7883 8.25856 18.3471 7.21543C17.9211 6.20825 17.3114 5.30386 16.535 4.5274C15.7585 3.75094 14.8541 3.14122 13.8469 2.71521C12.8038 2.274 11.6961 2.05029 10.5547 2.05029C9.41331 2.05029 8.30568 2.274 7.26254 2.71521C6.25537 3.14122 5.35098 3.75092 4.57452 4.5274C3.79804 5.30386 3.18833 6.20827 2.76233 7.21543C2.32112 8.25856 2.09741 9.36622 2.09741 10.5076C2.09741 11.649 2.32112 12.7567 2.76233 13.7998C3.18833 14.807 3.79804 15.7114 4.57452 16.4879C5.35098 17.2643 6.25539 17.8741 7.26254 18.3C8.30568 18.7412 9.41333 18.9649 10.5547 18.9649C11.6961 18.9649 12.8038 18.7412 13.8469 18.3C14.6152 17.9751 15.3234 17.5429 15.9609 17.0117C15.9624 17.0132 15.9638 17.0148 15.9653 17.0163L19.1567 20.2078C19.3032 20.3543 19.4951 20.4275 19.6871 20.4275C19.879 20.4275 20.071 20.3542 20.2174 20.2078C20.5103 19.9149 20.5103 19.44 20.2174 19.1472ZM10.5547 17.519C8.68192 17.519 6.9212 16.7897 5.59691 15.4655C4.27262 14.1412 3.54332 12.3804 3.54332 10.5076C3.54332 8.6348 4.27262 6.87408 5.59691 5.54979C6.92118 4.2255 8.6819 3.4962 10.5547 3.4962C12.4276 3.4962 14.1883 4.2255 15.5126 5.54979C16.8368 6.87406 17.5662 8.63478 17.5662 10.5076C17.5662 12.3805 16.8368 14.1412 15.5126 15.4655C14.1883 16.7897 12.4276 17.519 10.5547 17.519Z" fill="black" stroke="black"/>
</svg>
