<svg width="16" height="16" viewBox="0 0 16 16" fill="none" xmlns="http://www.w3.org/2000/svg">
<path d="M14.4285 7.84256C13.9411 6.54172 13.0802 5.43048 11.9424 4.62834C10.7762 3.80725 9.40515 3.37109 7.97345 3.37109C6.54175 3.37109 5.17073 3.80534 4.0045 4.62834C2.86481 5.43238 2.00579 6.54359 1.51845 7.84256L1.45776 8.00184L1.51845 8.16113C2.00579 9.46197 2.86672 10.5732 4.0045 11.3753C5.17072 12.1964 6.54175 12.6326 7.97345 12.6326C9.40515 12.6326 10.7762 12.1983 11.9424 11.3753C13.0821 10.5713 13.9411 9.46009 14.4285 8.16113L14.4891 8.00184L14.4285 7.84256ZM7.97345 11.7243C5.54998 11.7243 3.34648 10.2357 2.43247 8.00373C3.34458 5.76991 5.54998 4.2832 7.97345 4.2832C10.3969 4.2832 12.6004 5.77178 13.5144 8.00373C12.6004 10.2357 10.395 11.7243 7.97345 11.7243Z" fill="black" fill-opacity="0.45"/>
<path d="M7.97348 5.59375C6.64606 5.59375 5.56519 6.67464 5.56519 8.00205C5.56519 9.32945 6.64608 10.4103 7.97348 10.4103C9.30089 10.4103 10.3818 9.32945 10.3818 8.00205C10.3818 6.67464 9.30089 5.59375 7.97348 5.59375ZM7.97348 9.50012C7.1467 9.50012 6.4754 8.82884 6.4754 8.00205C6.4754 7.17525 7.14669 6.50397 7.97348 6.50397C8.80028 6.50397 9.47156 7.17525 9.47156 8.00205C9.47156 8.82884 8.79837 9.50012 7.97348 9.50012Z" fill="black" fill-opacity="0.45"/>
</svg>
